{"title":"Other.Peoples.Money.1991.DVDRip.x264.AAC-AUS","uid":6893484,"size":1036537786,"categoryP":"video","categoryS":"movies","magnet":"?xt=urn:btih:a61eda178c0756118188b0ba72df9eb699435d4e&amp;dn=Other.Peoples.Money.1991.DVDRip.x264.AAC-AUS&amp;tr=udp%3A%2F%2Ftracker.openbittorrent.com%3A80&amp;tr=udp%3A%2F%2Fopen.demonii.com%3A1337&amp;tr=udp%3A%2F%2Ftracker.coppersurfer.tk%3A6969&amp;tr=udp%3A%2F%2Fexodus.desync.com%3A6969","seeders":5,"leechers":4,"uploader":".morden","files":-1,"time":1324106436,"description":"A corporate raider threatens a hostile take-over of a &quot;mom and pop&quot; company. The patriarch of the company enlists the help of his wife's daughter...\n\nGeneral \nComplete name : Other.Peoples.Money.1991.DVDRip.x264.AAC-AUS.mp4 \nFormat : MPEG-4 \nFormat profile : Base Media / Version 2 \nCodec ID : mp42 \nFile size : 986 MiB \nDuration : 1h 36mn \nOverall bit rate : 1 424 Kbps \n\nVideo \nID : 1 \nFormat : AVC \nFormat/Info : Advanced Video Codec \nFormat profile : &lt;a class=&quot;__cf_email__&quot; href=&quot;/cdn-cgi/l/email-protection&quot; data-cfemail=&quot;eaa2838d82aaa6d9c4da&quot;&gt;[email&amp;#160;protected]&lt;/a&gt;&lt;script cf-hash='f9e31' type=&quot;text/javascript&quot;&gt;\n/* &lt;![CDATA[ */!function(){try{var t=&quot;currentScript&quot;in document?document.currentScript:function(){for(var t=document.getElementsByTagName(&quot;script&quot;),e=t.length;e--;)if(t[e].getAttribute(&quot;cf-hash&quot;))return t[e]}();if(t&amp;&amp;t.previousSibling){var e,r,n,i,c=t.previousSibling,a=c.getAttribute(&quot;data-cfemail&quot;);if(a){for(e=&quot;&quot;,r=parseInt(a.substr(0,2),16),n=2;a.length-n;n+=2)i=parseInt(a.substr(n,2),16)^r,e+=String.fromCharCode(i);e=document.createTextNode(e),c.parentNode.replaceChild(e,c)}}}catch(u){}}();/* ]]&gt; */&lt;/script&gt; \nFormat settings, CABAC : Yes \nFormat settings, ReFrames : 4 frames \nCodec ID : avc1 \nCodec ID/Info : Advanced Video Coding \nDuration : 1h 36mn \nBit rate mode : Variable \nBit rate : 1 100 Kbps \nWidth : 720 pixels \nHeight : 400 pixels \nDisplay aspect ratio : 16:9 \nFrame rate mode : Variable \nFrame rate : 25.000 fps \nMinimum frame rate : 7.813 fps \nMaximum frame rate : 25.000 fps \nColor space : YUV \nChroma subsampling : 4:2:0 \nBit depth : 8 bits \nScan type : Progressive \nBits/(Pixel*Frame) : 0.153 \nStream size : 762 MiB (77%) \nWriting library : x264 core 112 \n\nAudio \nID : 2 \nFormat : AAC \nFormat/Info : Advanced Audio Codec \nFormat profile : LC \nCodec ID : 40 \nDuration : 1h 36mn \nBit rate mode : Variable \nBit rate : 320 Kbps \nMaximum bit rate : 401 Kbps \nChannel(s) : 2 channels \nChannel positions : Front: L R \nSampling rate : 48.0 KHz \nCompression mode : Lossy \nStream size : 221 MiB (22%) \nLanguage : English \n","torrent":{"xt":"urn:btih:a61eda178c0756118188b0ba72df9eb699435d4e","amp;dn":"Other.Peoples.Money.1991.DVDRip.x264.AAC-AUS","amp;tr":["udp%3A%2F%2Ftracker.openbittorrent.com%3A80","udp%3A%2F%2Fopen.demonii.com%3A1337","udp%3A%2F%2Ftracker.coppersurfer.tk%3A6969","udp%3A%2F%2Fexodus.desync.com%3A6969"],"infoHash":"a61eda178c0756118188b0ba72df9eb699435d4e","infoHashBuffer":{"type":"Buffer","data":[166,30,218,23,140,7,86,17,129,136,176,186,114,223,158,182,153,67,93,78]},"announce":[],"urlList":[]}}